<?xml version="1.0" encoding="UTF-8" standalone="no"?>
<!-- Created with Inkscape (http://www.inkscape.org/) -->

<svg
   version="1.1"
   id="svg1"
   width="602.66669"
   height="278.66666"
   viewBox="0 0 602.66669 278.66666"
   sodipodi:docname="CPL Logo.svg"
   inkscape:version="1.3 (0e150ed, 2023-07-21)"
   xmlns:inkscape="http://www.inkscape.org/namespaces/inkscape"
   xmlns:sodipodi="http://sodipodi.sourceforge.net/DTD/sodipodi-0.dtd"
   xmlns="http://www.w3.org/2000/svg"
   xmlns:svg="http://www.w3.org/2000/svg">
  <defs
     id="defs1" />
  <sodipodi:namedview
     id="namedview1"
     pagecolor="#ffffff"
     bordercolor="#000000"
     borderopacity="0.25"
     inkscape:showpageshadow="2"
     inkscape:pageopacity="0.0"
     inkscape:pagecheckerboard="0"
     inkscape:deskcolor="#d1d1d1"
     inkscape:zoom="0.84688998"
     inkscape:cx="226.12146"
     inkscape:cy="135.20056"
     inkscape:window-width="1512"
     inkscape:window-height="916"
     inkscape:window-x="0"
     inkscape:window-y="477"
     inkscape:window-maximized="1"
     inkscape:current-layer="g1" />
  <g
     inkscape:groupmode="layer"
     inkscape:label="Image"
     id="g1">
    <path
       style="fill:#030303;stroke:none"
       d="M 120.66667,44.644498 C 103.19059,46.939094 87.763583,50.326708 72.666668,60.158393 24.495163,91.529485 17.648608,163.1143 58.113171,203.58175 81.186988,226.65719 108.9429,231.02824 140,231.02824 c 11.10285,0 27.75964,3.0852 38.00001,-1.56842 15.12382,-6.87286 15.19565,-30.14844 -0.66667,-36.2145 -8.22394,-3.145 -18.67528,-1.55041 -27.33334,-1.55041 -27.90073,0 -52.548551,0.78206 -70.373457,-24.66667 -4.034515,-5.7601 -6.657969,-12.41728 -7.790634,-19.33333 -1.30715,-7.98146 -1.321401,-15.46631 0.753601,-23.33333 1.805374,-6.84477 4.799398,-13.08599 9.189814,-18.66667 C 99.371117,83.333888 122.23637,84.361578 148,84.361578 c 10.54388,0 24.17239,2.215942 33.33078,-4.062764 11.84696,-8.121908 10.29943,-27.5519 -2.66411,-33.718607 -6.55324,-3.11735 -14.29414,-2.218628 -21.33333,-2.218628 -11.98165,0 -24.78709,-1.276855 -36.66667,0.282919 m 167.33334,0 c -9.20388,1.208455 -18.03638,2.037089 -26.66667,5.924906 -6.7195,3.027038 -13.06655,6.911132 -18.66667,11.705749 -30.68084,26.26774 -26.66666,64.259387 -26.66666,100.753087 v 34 c 0,6.71985 -0.70384,14.13171 1.19291,20.66667 2.78182,9.58433 13.39302,14.76493 22.80709,13.11419 19.24965,-3.37536 16,-26.18292 16,-40.44753 v -54.66666 c 0,-19.23787 0.0928,-38.148661 20,-48.126545 28.9234,-14.496928 68.9384,10.662862 56.86729,44.126545 -3.83787,10.63936 -13.96519,19.3706 -24.86729,22.06738 -8.59672,2.12651 -17.04248,0.47921 -23.40021,8.04631 -8.45274,10.06061 -4.78257,26.94067 8.06688,31.37911 9.71504,3.35577 23.31766,0.11584 32.66666,-3.28962 9.20417,-3.35272 18.11756,-8.81699 25.30709,-15.43312 6.65882,-6.12776 11.82654,-13.36649 15.86166,-21.43673 C 393.30189,99.428614 347.23487,36.866991 288.00001,44.644498 M 440.66668,191.69491 V 83.694911 c 0,-12.914937 3.38224,-31.068684 -11.33333,-37.413064 -11.86044,-5.113444 -26.43258,2.061422 -27.88428,15.413065 -1.25171,11.512166 -0.11572,23.750793 -0.11572,35.333332 v 69.999996 32.66667 c 0,6.11368 -0.7911,12.78409 1.16666,18.66666 4.87614,14.65141 20.61626,12.66667 32.83334,12.66667 h 89.33333 c 12.40731,0 26.77153,2.14913 33.11524,-11.33333 5.77441,-12.27259 -2.76445,-26.11044 -15.7819,-27.80709 -10.99475,-1.43302 -22.91134,-0.19291 -34,-0.19291 z"
       id="path1" />
  </g>
</svg>
